<svg xmlns="http://www.w3.org/2000/svg" viewBox="0 0 160 90" version="1.1">
    <svg viewBox="-6 -6 76 76" width="120" height="50" x="20" y="10">
        <g transform="translate(31.801223,31.801223) scale(1,-1)">
            <path d="M -28.284271247461906 24.748737341529175 A 2 2 0 0 1 -28.2843 21.9203L 21.920320227026018 -28.284281257634085 A 2 2 0 0 1 24.7487 -28.2843L 28.28426838739968 -24.74874020158558 A 2 2 0 0 1 28.2843 -21.9203L -21.920310216782983 28.28427124746191 A 2 2 0 0 1 -24.7487 28.2843L -28.284271247461906 24.748737341529175 " stroke="#ffffff" fill="#ffffff" stroke-width="2 px" style="stroke-width:2;fill-rule: evenodd" />
            <path d="M 11.177669529663696 22.177669529663692 L 6.177669529663695 22.17766952966369 A 2 2 0 0 1 4.17767 20.1777L 4.177669529663694 15.17766952966369 A 2 2 0 0 1 6.17767 13.1777L 11.177669529663696 13.17766952966369 A 2 2 0 0 0 13.1777 11.1777L 13.177669529663696 6.177669529663692 A 2 2 0 0 1 15.1777 4.17767L 20.177669529663696 4.177669529663691 A 2 2 0 0 1 22.1777 6.17767L 22.177669529663696 11.177669529663692 A 2 2 0 0 0 24.1777 13.1777L 29.177669529663696 13.17766952966369 A 2 2 0 0 1 31.1777 15.1777L 31.177669529663696 20.177669529663692 A 2 2 0 0 1 29.1777 22.1777L 24.177669529663696 22.177669529663692 A 2 2 0 0 0 22.1777 24.1777L 22.177669529663696 29.177669529663692 A 2 2 0 0 1 20.1777 31.1777L 15.177669529663696 31.177669529663692 A 2 2 0 0 1 13.1777 29.1777L 13.177669529663694 24.177669529663692 A 2 2 0 0 0 11.1777 22.1777" stroke="#ffffff" fill="#ffffff" stroke-width="2 px" style="stroke-width:2;fill-rule: evenodd" />
            <path d="M -31.177669529663664 -20.177669529663692 L -31.17766952966364 -15.17766995765914 A 2 2 0 0 0 -29.1777 -13.1777L -6.177669529663685 -13.177669529663692 A 2 2 0 0 0 -4.17767 -15.1777L -4.177669529663685 -20.177669529663692 A 2 2 0 0 0 -6.17767 -22.1777L -29.177669529663685 -22.177669529663696 A 2 2 0 0 0 -31.1777 -20.1777" stroke="#ffffff" fill="#ffffff" stroke-width="2 px" style="stroke-width:2;fill-rule: evenodd" />
        </g>
    </svg>

    <!--
        https://vector-text.com/
        Font: Montserrat
        Font Variant: 700 Regular
        Fill Color: #FFFFFF
        Kerning: true
        Ligatures: true
        Wrap Text: false
        Accessible Title: false
    -->
    <svg viewBox="2.8080000000000003 -53.42400000000001 414.36000000000007 67.968" width="140" height="30" x="10" y="60">
        <path d="M30.31 0.86L30.31 0.86Q24.34 0.86 19.33-1.04Q14.33-2.95 10.62-6.48Q6.91-10.01 4.86-14.76Q2.81-19.51 2.81-25.20L2.81-25.20Q2.81-30.89 4.86-35.64Q6.91-40.39 10.66-43.92Q14.40-47.45 19.44-49.36Q24.48-51.26 30.53-51.26L30.53-51.26Q37.22-51.26 42.59-49.03Q47.95-46.80 51.62-42.55L51.62-42.55L44.14-35.64Q41.40-38.52 38.16-39.92Q34.92-41.33 31.10-41.33L31.10-41.33Q27.43-41.33 24.41-40.18Q21.38-39.02 19.19-36.86Q16.99-34.70 15.80-31.75Q14.62-28.80 14.62-25.20L14.62-25.20Q14.62-21.67 15.80-18.72Q16.99-15.77 19.19-13.57Q21.38-11.38 24.37-10.22Q27.36-9.07 30.96-9.07L30.96-9.07Q34.42-9.07 37.69-10.19Q40.97-11.30 44.06-13.97L44.06-13.97L50.69-5.54Q46.58-2.45 41.15-0.79Q35.71 0.86 30.31 0.86ZM50.69-25.99L50.69-5.54L40.03-7.06L40.03-25.99L50.69-25.99ZM94.97 0L84.46 0L84.46-7.56L83.74-9.22L83.74-22.75Q83.74-26.35 81.54-28.37Q79.34-30.38 74.81-30.38L74.81-30.38Q71.71-30.38 68.72-29.41Q65.74-28.44 63.65-26.78L63.65-26.78L59.62-34.63Q62.78-36.86 67.25-38.09Q71.71-39.31 76.32-39.31L76.32-39.31Q85.18-39.31 90.07-35.14Q94.97-30.96 94.97-22.10L94.97-22.10L94.97 0ZM72.65 0.58L72.65 0.58Q68.11 0.58 64.87-0.97Q61.63-2.52 59.90-5.18Q58.18-7.85 58.18-11.16L58.18-11.16Q58.18-14.62 59.87-17.21Q61.56-19.80 65.23-21.28Q68.90-22.75 74.81-22.75L74.81-22.75L85.10-22.75L85.10-16.20L76.03-16.20Q72.07-16.20 70.60-14.90Q69.12-13.61 69.12-11.66L69.12-11.66Q69.12-9.50 70.81-8.24Q72.50-6.98 75.46-6.98L75.46-6.98Q78.26-6.98 80.50-8.32Q82.73-9.65 83.74-12.24L83.74-12.24L85.46-7.06Q84.24-3.31 81.00-1.37Q77.76 0.58 72.65 0.58ZM116.35 0L105.12 0L105.12-38.74L115.85-38.74L115.85-28.15L113.83-31.25Q115.85-35.21 119.56-37.26Q123.26-39.31 128.02-39.31L128.02-39.31Q133.34-39.31 137.34-36.61Q141.34-33.91 142.63-28.37L142.63-28.37L138.67-29.45Q140.62-33.98 144.90-36.65Q149.18-39.31 154.73-39.31L154.73-39.31Q159.34-39.31 162.90-37.48Q166.46-35.64 168.52-31.86Q170.57-28.08 170.57-22.18L170.57-22.18L170.57 0L159.34 0L159.34-20.45Q159.34-25.13 157.39-27.36Q155.45-29.59 151.92-29.59L151.92-29.59Q149.47-29.59 147.53-28.48Q145.58-27.36 144.50-25.13Q143.42-22.90 143.42-19.44L143.42-19.44L143.42 0L132.19 0L132.19-20.45Q132.19-25.13 130.28-27.36Q128.38-29.59 124.85-29.59L124.85-29.59Q122.40-29.59 120.46-28.48Q118.51-27.36 117.43-25.13Q116.35-22.90 116.35-19.44L116.35-19.44L116.35 0ZM199.87 0.58L199.87 0.58Q193.25 0.58 188.24-2.02Q183.24-4.61 180.50-9.11Q177.77-13.61 177.77-19.37L177.77-19.37Q177.77-25.20 180.47-29.70Q183.17-34.20 187.85-36.76Q192.53-39.31 198.43-39.31L198.43-39.31Q204.12-39.31 208.69-36.90Q213.26-34.49 215.93-29.99Q218.59-25.49 218.59-19.22L218.59-19.22Q218.59-18.58 218.52-17.75Q218.45-16.92 218.38-16.20L218.38-16.20L186.91-16.20L186.91-22.75L212.47-22.75L208.15-20.81Q208.15-23.83 206.93-26.06Q205.70-28.30 203.54-29.56Q201.38-30.82 198.50-30.82L198.50-30.82Q195.62-30.82 193.43-29.56Q191.23-28.30 190.01-26.03Q188.78-23.76 188.78-20.66L188.78-20.66L188.78-18.94Q188.78-15.77 190.19-13.36Q191.59-10.94 194.15-9.68Q196.70-8.42 200.16-8.42L200.16-8.42Q203.26-8.42 205.60-9.36Q207.94-10.30 209.88-12.17L209.88-12.17L215.86-5.69Q213.19-2.66 209.16-1.04Q205.13 0.58 199.87 0.58ZM269.35 0L257.69 0L257.69-40.90L241.56-40.90L241.56-50.40L285.48-50.40L285.48-40.90L269.35-40.90L269.35 0ZM325.22 0L314.71 0L314.71-7.56L313.99-9.22L313.99-22.75Q313.99-26.35 311.80-28.37Q309.60-30.38 305.06-30.38L305.06-30.38Q301.97-30.38 298.98-29.41Q295.99-28.44 293.90-26.78L293.90-26.78L289.87-34.63Q293.04-36.86 297.50-38.09Q301.97-39.31 306.58-39.31L306.58-39.31Q315.43-39.31 320.33-35.14Q325.22-30.96 325.22-22.10L325.22-22.10L325.22 0ZM302.90 0.58L302.90 0.58Q298.37 0.58 295.13-0.97Q291.89-2.52 290.16-5.18Q288.43-7.85 288.43-11.16L288.43-11.16Q288.43-14.62 290.12-17.21Q291.82-19.80 295.49-21.28Q299.16-22.75 305.06-22.75L305.06-22.75L315.36-22.75L315.36-16.20L306.29-16.20Q302.33-16.20 300.85-14.90Q299.38-13.61 299.38-11.66L299.38-11.66Q299.38-9.50 301.07-8.24Q302.76-6.98 305.71-6.98L305.71-6.98Q308.52-6.98 310.75-8.32Q312.98-9.65 313.99-12.24L313.99-12.24L315.72-7.06Q314.50-3.31 311.26-1.37Q308.02 0.58 302.90 0.58ZM346.61 0L335.38 0L335.38-53.42L346.61-53.42L346.61 0ZM368.28 0L357.05 0L357.05-53.42L368.28-53.42L368.28 0ZM383.62 14.54L383.62 14.54Q380.59 14.54 377.64 13.61Q374.69 12.67 372.82 11.02L372.82 11.02L376.92 3.02Q378.22 4.18 379.91 4.82Q381.60 5.47 383.26 5.47L383.26 5.47Q385.63 5.47 387.04 4.36Q388.44 3.24 389.59 0.65L389.59 0.65L391.61-4.10L392.47-5.33L406.37-38.74L417.17-38.74L399.67 2.38Q397.80 7.06 395.39 9.72Q392.98 12.38 390.06 13.46Q387.14 14.54 383.62 14.54ZM397.94-6.34L390.24 1.51L372.96-38.74L384.55-38.74L397.94-6.34Z" fill="#ffffff"></path>
    </svg>
</svg>