<?xml version="1.0"?>
<!DOCTYPE svg PUBLIC "-//W3C//DTD SVG 1.1//EN" "http://www.w3.org/Graphics/SVG/1.1/DTD/svg11.dtd">
<svg width="70mm" height="70mm" viewBox="-6 -6 76 76" xmlns="http://www.w3.org/2000/svg" version="1.1">
    <g transform="translate(31.801223,31.801223) scale(1,-1)">
        <path d="M -28.284271247461906 24.748737341529175 A 2 2 0 0 1 -28.2843 21.9203L 21.920320227026018 -28.284281257634085 A 2 2 0 0 1 24.7487 -28.2843L 28.28426838739968 -24.74874020158558 A 2 2 0 0 1 28.2843 -21.9203L -21.920310216782983 28.28427124746191 A 2 2 0 0 1 -24.7487 28.2843L -28.284271247461906 24.748737341529175 " stroke="#ffffff" fill="#ffffff" stroke-width="2 px" style="stroke-width:2;fill-rule: evenodd" />
        <path d="M 11.177669529663696 22.177669529663692 L 6.177669529663695 22.17766952966369 A 2 2 0 0 1 4.17767 20.1777L 4.177669529663694 15.17766952966369 A 2 2 0 0 1 6.17767 13.1777L 11.177669529663696 13.17766952966369 A 2 2 0 0 0 13.1777 11.1777L 13.177669529663696 6.177669529663692 A 2 2 0 0 1 15.1777 4.17767L 20.177669529663696 4.177669529663691 A 2 2 0 0 1 22.1777 6.17767L 22.177669529663696 11.177669529663692 A 2 2 0 0 0 24.1777 13.1777L 29.177669529663696 13.17766952966369 A 2 2 0 0 1 31.1777 15.1777L 31.177669529663696 20.177669529663692 A 2 2 0 0 1 29.1777 22.1777L 24.177669529663696 22.177669529663692 A 2 2 0 0 0 22.1777 24.1777L 22.177669529663696 29.177669529663692 A 2 2 0 0 1 20.1777 31.1777L 15.177669529663696 31.177669529663692 A 2 2 0 0 1 13.1777 29.1777L 13.177669529663694 24.177669529663692 A 2 2 0 0 0 11.1777 22.1777" stroke="#ffffff" fill="#ffffff" stroke-width="2 px" style="stroke-width:2;fill-rule: evenodd" />
        <path d="M -31.177669529663664 -20.177669529663692 L -31.17766952966364 -15.17766995765914 A 2 2 0 0 0 -29.1777 -13.1777L -6.177669529663685 -13.177669529663692 A 2 2 0 0 0 -4.17767 -15.1777L -4.177669529663685 -20.177669529663692 A 2 2 0 0 0 -6.17767 -22.1777L -29.177669529663685 -22.177669529663696 A 2 2 0 0 0 -31.1777 -20.1777" stroke="#ffffff" fill="#ffffff" stroke-width="2 px" style="stroke-width:2;fill-rule: evenodd" />
    </g>
</svg>
