<svg xmlns="http://www.w3.org/2000/svg" viewBox="0 0 160 90" version="1.1">
    <svg viewBox="-50 -50 100 100" width="120" height="50" x="20" y="10">
        <g transform="scale(1.5)">
            <svg viewBox="0 0 320 512" width="37" x="-46" y="-50">
                <path fill="#ffffff" d="M9.4 233.4c-12.5 12.5-12.5 32.8 0 45.3l192 192c12.5 12.5 32.8 12.5 45.3 0s12.5-32.8 0-45.3L77.3 256 246.6 86.6c12.5-12.5 12.5-32.8 0-45.3s-32.8-12.5-45.3 0l-192 192z"/>
            </svg>

            <g transform="rotate(-24)">
                <svg viewBox="0 0 16 16" width="118" height="118" x="-59" y="-59">
                    <path fill="#ffffff" d="M11.354 4.646a.5.5 0 0 1 0 .708l-6 6a.5.5 0 0 1-.708-.708l6-6a.5.5 0 0 1 .708 0"/>
                </svg>
            </g>

            <svg viewBox="0 0 320 512" width="37" x="9" y="-50">
                <path fill="#ffffff" d="M310.6 233.4c12.5 12.5 12.5 32.8 0 45.3l-192 192c-12.5 12.5-32.8 12.5-45.3 0s-12.5-32.8 0-45.3L242.7 256 73.4 86.6c-12.5-12.5-12.5-32.8 0-45.3s32.8-12.5 45.3 0l192 192z"/>
            </svg>
        </g>
    </svg>

    <!--
        https://vector-text.com/
        Font: Montserrat
        Font Variant: 700 Regular
        Fill Color: #FFFFFF
        Kerning: true
        Ligatures: true
        Wrap Text: false
        Accessible Title: false
    -->
    <svg viewBox="-1.1520000000000001 -51.264 523.2240000000002 65.808" width="140" height="30" x="10" y="60">
        <path d="M15.26 0.86L15.26 0.86Q10.15 0.86 5.87-1.04Q1.58-2.95-1.15-6.48L-1.15-6.48L5.33-14.26Q7.42-11.52 9.72-10.12Q12.02-8.71 14.69-8.71L14.69-8.71Q21.82-8.71 21.82-17.06L21.82-17.06L21.82-41.04L4.10-41.04L4.10-50.40L33.41-50.40L33.41-17.71Q33.41-8.35 28.80-3.74Q24.19 0.86 15.26 0.86ZM62.57 0.58L62.57 0.58Q56.38 0.58 51.59-2.02Q46.80-4.61 44.03-9.11Q41.26-13.61 41.26-19.37L41.26-19.37Q41.26-25.20 44.03-29.70Q46.80-34.20 51.59-36.76Q56.38-39.31 62.57-39.31L62.57-39.31Q68.69-39.31 73.51-36.76Q78.34-34.20 81.07-29.74Q83.81-25.27 83.81-19.37L83.81-19.37Q83.81-13.61 81.07-9.11Q78.34-4.61 73.51-2.02Q68.69 0.58 62.57 0.58ZM62.57-8.64L62.57-8.64Q65.38-8.64 67.61-9.94Q69.84-11.23 71.14-13.64Q72.43-16.06 72.43-19.37L72.43-19.37Q72.43-22.75 71.14-25.13Q69.84-27.50 67.61-28.80Q65.38-30.10 62.57-30.10L62.57-30.10Q59.76-30.10 57.53-28.80Q55.30-27.50 53.96-25.13Q52.63-22.75 52.63-19.37L52.63-19.37Q52.63-16.06 53.96-13.64Q55.30-11.23 57.53-9.94Q59.76-8.64 62.57-8.64ZM102.53 0L91.30 0L91.30-38.74L102.02-38.74L102.02-28.01L100.01-31.25Q102.10-35.14 105.98-37.22Q109.87-39.31 114.84-39.31L114.84-39.31Q119.45-39.31 123.08-37.48Q126.72-35.64 128.81-31.86Q130.90-28.08 130.90-22.18L130.90-22.18L130.90 0L119.66 0L119.66-20.45Q119.66-25.13 117.61-27.36Q115.56-29.59 111.82-29.59L111.82-29.59Q109.15-29.59 107.03-28.48Q104.90-27.36 103.72-25.06Q102.53-22.75 102.53-19.15L102.53-19.15L102.53 0ZM165.96 0.86L165.96 0.86Q160.13 0.86 155.12-1.04Q150.12-2.95 146.45-6.48Q142.78-10.01 140.72-14.76Q138.67-19.51 138.67-25.20L138.67-25.20Q138.67-30.89 140.72-35.64Q142.78-40.39 146.48-43.92Q150.19-47.45 155.16-49.36Q160.13-51.26 166.03-51.26L166.03-51.26Q172.58-51.26 177.88-49.00Q183.17-46.73 186.77-42.34L186.77-42.34L179.28-35.42Q176.69-38.38 173.52-39.85Q170.35-41.33 166.61-41.33L166.61-41.33Q163.08-41.33 160.13-40.18Q157.18-39.02 155.02-36.86Q152.86-34.70 151.67-31.75Q150.48-28.80 150.48-25.20L150.48-25.20Q150.48-21.60 151.67-18.65Q152.86-15.70 155.02-13.54Q157.18-11.38 160.13-10.22Q163.08-9.07 166.61-9.07L166.61-9.07Q170.35-9.07 173.52-10.55Q176.69-12.02 179.28-15.05L179.28-15.05L186.77-8.14Q183.17-3.74 177.88-1.44Q172.58 0.86 165.96 0.86ZM211.61 0.58L211.61 0.58Q205.42 0.58 200.63-2.02Q195.84-4.61 193.07-9.11Q190.30-13.61 190.30-19.37L190.30-19.37Q190.30-25.20 193.07-29.70Q195.84-34.20 200.63-36.76Q205.42-39.31 211.61-39.31L211.61-39.31Q217.73-39.31 222.55-36.76Q227.38-34.20 230.11-29.74Q232.85-25.27 232.85-19.37L232.85-19.37Q232.85-13.61 230.11-9.11Q227.38-4.61 222.55-2.02Q217.73 0.58 211.61 0.58ZM211.61-8.64L211.61-8.64Q214.42-8.64 216.65-9.94Q218.88-11.23 220.18-13.64Q221.47-16.06 221.47-19.37L221.47-19.37Q221.47-22.75 220.18-25.13Q218.88-27.50 216.65-28.80Q214.42-30.10 211.61-30.10L211.61-30.10Q208.80-30.10 206.57-28.80Q204.34-27.50 203.00-25.13Q201.67-22.75 201.67-19.37L201.67-19.37Q201.67-16.06 203.00-13.64Q204.34-11.23 206.57-9.94Q208.80-8.64 211.61-8.64ZM251.57 0L240.34 0L240.34-38.74L251.06-38.74L251.06-27.79L249.55-30.96Q251.28-35.06 255.10-37.19Q258.91-39.31 264.38-39.31L264.38-39.31L264.38-28.94Q263.66-29.02 263.09-29.05Q262.51-29.09 261.86-29.09L261.86-29.09Q257.26-29.09 254.41-26.46Q251.57-23.83 251.57-18.29L251.57-18.29L251.57 0ZM290.59 0.58L290.59 0.58Q283.97 0.58 278.96-2.02Q273.96-4.61 271.22-9.11Q268.49-13.61 268.49-19.37L268.49-19.37Q268.49-25.20 271.19-29.70Q273.89-34.20 278.57-36.76Q283.25-39.31 289.15-39.31L289.15-39.31Q294.84-39.31 299.41-36.90Q303.98-34.49 306.65-29.99Q309.31-25.49 309.31-19.22L309.31-19.22Q309.31-18.58 309.24-17.75Q309.17-16.92 309.10-16.20L309.10-16.20L277.63-16.20L277.63-22.75L303.19-22.75L298.87-20.81Q298.87-23.83 297.65-26.06Q296.42-28.30 294.26-29.56Q292.10-30.82 289.22-30.82L289.22-30.82Q286.34-30.82 284.15-29.56Q281.95-28.30 280.73-26.03Q279.50-23.76 279.50-20.66L279.50-20.66L279.50-18.94Q279.50-15.77 280.91-13.36Q282.31-10.94 284.87-9.68Q287.42-8.42 290.88-8.42L290.88-8.42Q293.98-8.42 296.32-9.36Q298.66-10.30 300.60-12.17L300.60-12.17L306.58-5.69Q303.91-2.66 299.88-1.04Q295.85 0.58 290.59 0.58ZM321.70 14.54L321.70 14.54Q318.67 14.54 315.72 13.61Q312.77 12.67 310.90 11.02L310.90 11.02L315.00 3.02Q316.30 4.18 317.99 4.82Q319.68 5.47 321.34 5.47L321.34 5.47Q323.71 5.47 325.12 4.36Q326.52 3.24 327.67 0.65L327.67 0.65L329.69-4.10L330.55-5.33L344.45-38.74L355.25-38.74L337.75 2.38Q335.88 7.06 333.47 9.72Q331.06 12.38 328.14 13.46Q325.22 14.54 321.70 14.54ZM336.02-6.34L328.32 1.51L311.04-38.74L322.63-38.74L336.02-6.34ZM364.10 0.58L364.10 0.58Q361.22 0.58 359.17-1.40Q357.12-3.38 357.12-6.48L357.12-6.48Q357.12-9.58 359.17-11.48Q361.22-13.39 364.10-13.39L364.10-13.39Q367.06-13.39 369.07-11.48Q371.09-9.58 371.09-6.48L371.09-6.48Q371.09-3.38 369.07-1.40Q367.06 0.58 364.10 0.58ZM402.41 0L379.51 0L379.51-50.40L402.41-50.40Q410.62-50.40 416.88-47.27Q423.14-44.14 426.67-38.52Q430.20-32.90 430.20-25.20L430.20-25.20Q430.20-17.57 426.67-11.92Q423.14-6.26 416.88-3.13Q410.62 0 402.41 0L402.41 0ZM391.18-40.82L391.18-9.58L401.83-9.58Q406.87-9.58 410.58-11.48Q414.29-13.39 416.34-16.92Q418.39-20.45 418.39-25.20L418.39-25.20Q418.39-30.02 416.34-33.52Q414.29-37.01 410.58-38.92Q406.87-40.82 401.83-40.82L401.83-40.82L391.18-40.82ZM457.42 0.58L457.42 0.58Q450.79 0.58 445.79-2.02Q440.78-4.61 438.05-9.11Q435.31-13.61 435.31-19.37L435.31-19.37Q435.31-25.20 438.01-29.70Q440.71-34.20 445.39-36.76Q450.07-39.31 455.98-39.31L455.98-39.31Q461.66-39.31 466.24-36.90Q470.81-34.49 473.47-29.99Q476.14-25.49 476.14-19.22L476.14-19.22Q476.14-18.58 476.06-17.75Q475.99-16.92 475.92-16.20L475.92-16.20L444.46-16.20L444.46-22.75L470.02-22.75L465.70-20.81Q465.70-23.83 464.47-26.06Q463.25-28.30 461.09-29.56Q458.93-30.82 456.05-30.82L456.05-30.82Q453.17-30.82 450.97-29.56Q448.78-28.30 447.55-26.03Q446.33-23.76 446.33-20.66L446.33-20.66L446.33-18.94Q446.33-15.77 447.73-13.36Q449.14-10.94 451.69-9.68Q454.25-8.42 457.70-8.42L457.70-8.42Q460.80-8.42 463.14-9.36Q465.48-10.30 467.42-12.17L467.42-12.17L473.40-5.69Q470.74-2.66 466.70-1.04Q462.67 0.58 457.42 0.58ZM505.73 0L494.14 0L477.86-38.74L489.46-38.74L502.99-5.40L497.23-5.40L511.27-38.74L522.07-38.74L505.73 0Z" fill="#ffffff"></path>
    </svg>
</svg>