<svg xmlns="http://www.w3.org/2000/svg" viewBox="0 0 160 90" version="1.1">
    <svg viewBox="2 2 12 12" width="120" height="50" x="20" y="10">
        <path fill="#ffffff" d="M12.258 3h-8.51l-.083 2.46h.479c.26-1.544.758-1.783 2.693-1.845l.424-.013v7.827c0 .663-.144.82-1.3.923v.52h4.082v-.52c-1.162-.103-1.306-.26-1.306-.923V3.602l.431.013c1.934.062 2.434.301 2.693 1.846h.479z"/>
    </svg>

    <!--
        https://vector-text.com/
        Font: Montserrat
        Font Variant: 700 Regular
        Fill Color: #FFFFFF
        Kerning: true
        Ligatures: true
        Wrap Text: false
        Accessible Title: false
    -->
    <svg viewBox="-0.6480000000000001 -50.400000000000006 435.168 50.976000000000006" width="140" height="30" x="10" y="60">
        <path d="M32.62 0L21.10 0L-0.65-50.40L11.95-50.40L30.96-5.76L23.54-5.76L42.84-50.40L54.43-50.40L32.62 0ZM78.12 0.58L78.12 0.58Q71.50 0.58 66.49-2.02Q61.49-4.61 58.75-9.11Q56.02-13.61 56.02-19.37L56.02-19.37Q56.02-25.20 58.72-29.70Q61.42-34.20 66.10-36.76Q70.78-39.31 76.68-39.31L76.68-39.31Q82.37-39.31 86.94-36.90Q91.51-34.49 94.18-29.99Q96.84-25.49 96.84-19.22L96.84-19.22Q96.84-18.58 96.77-17.75Q96.70-16.92 96.62-16.20L96.62-16.20L65.16-16.20L65.16-22.75L90.72-22.75L86.40-20.81Q86.40-23.83 85.18-26.06Q83.95-28.30 81.79-29.56Q79.63-30.82 76.75-30.82L76.75-30.82Q73.87-30.82 71.68-29.56Q69.48-28.30 68.26-26.03Q67.03-23.76 67.03-20.66L67.03-20.66L67.03-18.94Q67.03-15.77 68.44-13.36Q69.84-10.94 72.40-9.68Q74.95-8.42 78.41-8.42L78.41-8.42Q81.50-8.42 83.84-9.36Q86.18-10.30 88.13-12.17L88.13-12.17L94.10-5.69Q91.44-2.66 87.41-1.04Q83.38 0.58 78.12 0.58ZM123.05 0.58L123.05 0.58Q116.78 0.58 111.89-1.98Q106.99-4.54 104.22-9.07Q101.45-13.61 101.45-19.37L101.45-19.37Q101.45-25.20 104.22-29.70Q106.99-34.20 111.89-36.76Q116.78-39.31 123.05-39.31L123.05-39.31Q129.17-39.31 133.70-36.76Q138.24-34.20 140.40-29.45L140.40-29.45L131.69-24.77Q130.18-27.50 127.91-28.80Q125.64-30.10 122.98-30.10L122.98-30.10Q120.10-30.10 117.79-28.80Q115.49-27.50 114.16-25.13Q112.82-22.75 112.82-19.37L112.82-19.37Q112.82-15.98 114.16-13.61Q115.49-11.23 117.79-9.94Q120.10-8.64 122.98-8.64L122.98-8.64Q125.64-8.64 127.91-9.90Q130.18-11.16 131.69-13.97L131.69-13.97L140.40-9.22Q138.24-4.54 133.70-1.98Q129.17 0.58 123.05 0.58ZM162.72 0.58L162.72 0.58Q155.88 0.58 152.06-2.92Q148.25-6.41 148.25-13.32L148.25-13.32L148.25-47.30L159.48-47.30L159.48-13.46Q159.48-11.02 160.78-9.68Q162.07-8.35 164.30-8.35L164.30-8.35Q166.97-8.35 168.84-9.79L168.84-9.79L171.86-1.87Q170.14-0.65 167.72-0.04Q165.31 0.58 162.72 0.58ZM169.13-30.10L142.27-30.10L142.27-38.74L169.13-38.74L169.13-30.10ZM196.63 0.58L196.63 0.58Q190.44 0.58 185.65-2.02Q180.86-4.61 178.09-9.11Q175.32-13.61 175.32-19.37L175.32-19.37Q175.32-25.20 178.09-29.70Q180.86-34.20 185.65-36.76Q190.44-39.31 196.63-39.31L196.63-39.31Q202.75-39.31 207.58-36.76Q212.40-34.20 215.14-29.74Q217.87-25.27 217.87-19.37L217.87-19.37Q217.87-13.61 215.14-9.11Q212.40-4.61 207.58-2.02Q202.75 0.58 196.63 0.58ZM196.63-8.64L196.63-8.64Q199.44-8.64 201.67-9.94Q203.90-11.23 205.20-13.64Q206.50-16.06 206.50-19.37L206.50-19.37Q206.50-22.75 205.20-25.13Q203.90-27.50 201.67-28.80Q199.44-30.10 196.63-30.10L196.63-30.10Q193.82-30.10 191.59-28.80Q189.36-27.50 188.03-25.13Q186.70-22.75 186.70-19.37L186.70-19.37Q186.70-16.06 188.03-13.64Q189.36-11.23 191.59-9.94Q193.82-8.64 196.63-8.64ZM236.59 0L225.36 0L225.36-38.74L236.09-38.74L236.09-27.79L234.58-30.96Q236.30-35.06 240.12-37.19Q243.94-39.31 249.41-39.31L249.41-39.31L249.41-28.94Q248.69-29.02 248.11-29.05Q247.54-29.09 246.89-29.09L246.89-29.09Q242.28-29.09 239.44-26.46Q236.59-23.83 236.59-18.29L236.59-18.29L236.59 0ZM299.66 0L288 0L288-40.90L271.87-40.90L271.87-50.40L315.79-50.40L315.79-40.90L299.66-40.90L299.66 0ZM340.49 0.58L340.49 0.58Q333.86 0.58 328.86-2.02Q323.86-4.61 321.12-9.11Q318.38-13.61 318.38-19.37L318.38-19.37Q318.38-25.20 321.08-29.70Q323.78-34.20 328.46-36.76Q333.14-39.31 339.05-39.31L339.05-39.31Q344.74-39.31 349.31-36.90Q353.88-34.49 356.54-29.99Q359.21-25.49 359.21-19.22L359.21-19.22Q359.21-18.58 359.14-17.75Q359.06-16.92 358.99-16.20L358.99-16.20L327.53-16.20L327.53-22.75L353.09-22.75L348.77-20.81Q348.77-23.83 347.54-26.06Q346.32-28.30 344.16-29.56Q342-30.82 339.12-30.82L339.12-30.82Q336.24-30.82 334.04-29.56Q331.85-28.30 330.62-26.03Q329.40-23.76 329.40-20.66L329.40-20.66L329.40-18.94Q329.40-15.77 330.80-13.36Q332.21-10.94 334.76-9.68Q337.32-8.42 340.78-8.42L340.78-8.42Q343.87-8.42 346.21-9.36Q348.55-10.30 350.50-12.17L350.50-12.17L356.47-5.69Q353.81-2.66 349.78-1.04Q345.74 0.58 340.49 0.58ZM374.04 0L361.80 0L379.15-22.75L378.94-16.56L362.30-38.74L374.90-38.74L385.42-24.26L380.66-24.12L391.54-38.74L403.49-38.74L386.78-16.78L386.78-22.82L404.06 0L391.32 0L380.30-15.41L384.98-14.76L374.04 0ZM425.38 0.58L425.38 0.58Q418.54 0.58 414.72-2.92Q410.90-6.41 410.90-13.32L410.90-13.32L410.90-47.30L422.14-47.30L422.14-13.46Q422.14-11.02 423.43-9.68Q424.73-8.35 426.96-8.35L426.96-8.35Q429.62-8.35 431.50-9.79L431.50-9.79L434.52-1.87Q432.79-0.65 430.38-0.04Q427.97 0.58 425.38 0.58ZM431.78-30.10L404.93-30.10L404.93-38.74L431.78-38.74L431.78-30.10Z" fill="#ffffff"></path>
    </svg>
</svg>