<svg xmlns="http://www.w3.org/2000/svg" viewBox="0 0 160 90" version="1.1">
    <svg viewBox="2 2 12 12" width="120" height="50" x="20" y="10">
        <g fill="none" stroke="#ffffff" stroke-width="2" stroke-linecap="round" stroke-linejoin="round">
            <path d="M13 6.25h-10l3.25 -3.25m-3.25 3.25l3.25 3.25"/>
            <path d="M3 9.75h10l-3.25 3.25m3.25 -3.25l-3.25 -3.25"/>
        </g>
    </svg>

    <!--
        https://vector-text.com/
        Font: Montserrat
        Font Variant: 700 Regular
        Fill Color: #FFFFFF
        Kerning: true
        Ligatures: true
        Wrap Text: false
        Accessible Title: false
    -->
    <svg viewBox="5.98 -51.26 487.15 65.81" width="140" height="30" x="10" y="60">
        <path d="M45 0L5.98 0L5.98-50.4L44.06-50.4L44.06-41.04L17.57-41.04L17.57-9.36L45-9.36L45 0ZM40.97-21.02L16.7-21.02L16.7-30.1L40.97-30.1L40.97-21.02ZM87.77 0L77.26 0L77.26-7.56L76.54-9.22L76.54-22.75Q76.54-26.35 74.34-28.37Q72.14-30.38 67.61-30.38L67.61-30.38Q64.51-30.38 61.52-29.41Q58.54-28.44 56.45-26.78L56.45-26.78L52.42-34.63Q55.58-36.86 60.05-38.09Q64.51-39.31 69.12-39.31L69.12-39.31Q77.98-39.31 82.87-35.14Q87.77-30.96 87.77-22.1L87.77-22.1L87.77 0ZM65.45 0.58L65.45 0.58Q60.91 0.58 57.67-0.97Q54.43-2.52 52.7-5.18Q50.98-7.85 50.98-11.16L50.98-11.16Q50.98-14.62 52.67-17.21Q54.36-19.8 58.03-21.28Q61.7-22.75 67.61-22.75L67.61-22.75L77.9-22.75L77.9-16.2L68.83-16.2Q64.87-16.2 63.4-14.9Q61.92-13.61 61.92-11.66L61.92-11.66Q61.92-9.5 63.61-8.24Q65.3-6.98 68.26-6.98L68.26-6.98Q71.06-6.98 73.3-8.32Q75.53-9.65 76.54-12.24L76.54-12.24L78.26-7.06Q77.04-3.31 73.8-1.37Q70.56 0.58 65.45 0.58ZM110.95 0.58L110.95 0.58Q105.98 0.58 101.41-0.61Q96.84-1.8 94.18-3.6L94.18-3.6L97.92-11.66Q100.58-10.01 104.22-8.96Q107.86-7.92 111.38-7.92L111.38-7.92Q115.27-7.92 116.89-8.86Q118.51-9.79 118.51-11.45L118.51-11.45Q118.51-12.82 117.25-13.5Q115.99-14.18 113.9-14.54Q111.82-14.9 109.33-15.26Q106.85-15.62 104.33-16.24Q101.81-16.85 99.72-18.07Q97.63-19.3 96.37-21.38Q95.11-23.47 95.11-26.78L95.11-26.78Q95.11-30.46 97.24-33.26Q99.36-36.07 103.39-37.69Q107.42-39.31 113.04-39.31L113.04-39.31Q117-39.31 121.1-38.45Q125.21-37.58 127.94-35.93L127.94-35.93L124.2-27.94Q121.39-29.59 118.55-30.2Q115.7-30.82 113.04-30.82L113.04-30.82Q109.3-30.82 107.57-29.81Q105.84-28.8 105.84-27.22L105.84-27.22Q105.84-25.78 107.1-25.06Q108.36-24.34 110.45-23.9Q112.54-23.47 115.02-23.15Q117.5-22.82 120.02-22.18Q122.54-21.53 124.6-20.34Q126.65-19.15 127.94-17.1Q129.24-15.05 129.24-11.74L129.24-11.74Q129.24-8.14 127.08-5.36Q124.92-2.59 120.85-1.01Q116.78 0.58 110.95 0.58ZM141.05 14.54L141.05 14.54Q138.02 14.54 135.07 13.61Q132.12 12.67 130.25 11.02L130.25 11.02L134.35 3.02Q135.65 4.18 137.34 4.82Q139.03 5.47 140.69 5.47L140.69 5.47Q143.06 5.47 144.47 4.36Q145.87 3.24 147.02 0.65L147.02 0.65L149.04-4.1L149.9-5.33L163.8-38.74L174.6-38.74L157.1 2.38Q155.23 7.06 152.82 9.72Q150.41 12.38 147.49 13.46Q144.58 14.54 141.05 14.54ZM155.38-6.34L147.67 1.51L130.39-38.74L141.98-38.74L155.38-6.34ZM224.5 0.86L224.5 0.86Q218.66 0.86 213.66-1.04Q208.66-2.95 204.98-6.48Q201.31-10.01 199.26-14.76Q197.21-19.51 197.21-25.2L197.21-25.2Q197.21-30.89 199.26-35.64Q201.31-40.39 205.02-43.92Q208.73-47.45 213.7-49.36Q218.66-51.26 224.57-51.26L224.57-51.26Q231.12-51.26 236.41-49Q241.7-46.73 245.3-42.34L245.3-42.34L237.82-35.42Q235.22-38.38 232.06-39.85Q228.89-41.33 225.14-41.33L225.14-41.33Q221.62-41.33 218.66-40.18Q215.71-39.02 213.55-36.86Q211.39-34.7 210.2-31.75Q209.02-28.8 209.02-25.2L209.02-25.2Q209.02-21.6 210.2-18.65Q211.39-15.7 213.55-13.54Q215.71-11.38 218.66-10.22Q221.62-9.07 225.14-9.07L225.14-9.07Q228.89-9.07 232.06-10.55Q235.22-12.02 237.82-15.05L237.82-15.05L245.3-8.14Q241.7-3.74 236.41-1.44Q231.12 0.86 224.5 0.86ZM270.14 0.58L270.14 0.58Q263.95 0.58 259.16-2.02Q254.38-4.61 251.6-9.11Q248.83-13.61 248.83-19.37L248.83-19.37Q248.83-25.2 251.6-29.7Q254.38-34.2 259.16-36.76Q263.95-39.31 270.14-39.31L270.14-39.31Q276.26-39.31 281.09-36.76Q285.91-34.2 288.65-29.74Q291.38-25.27 291.38-19.37L291.38-19.37Q291.38-13.61 288.65-9.11Q285.91-4.61 281.09-2.02Q276.26 0.58 270.14 0.58ZM270.14-8.64L270.14-8.64Q272.95-8.64 275.18-9.94Q277.42-11.23 278.71-13.64Q280.01-16.06 280.01-19.37L280.01-19.37Q280.01-22.75 278.71-25.13Q277.42-27.5 275.18-28.8Q272.95-30.1 270.14-30.1L270.14-30.1Q267.34-30.1 265.1-28.8Q262.87-27.5 261.54-25.13Q260.21-22.75 260.21-19.37L260.21-19.37Q260.21-16.06 261.54-13.64Q262.87-11.23 265.1-9.94Q267.34-8.64 270.14-8.64ZM310.1 0L298.87 0L298.87-38.74L309.6-38.74L309.6-28.01L307.58-31.25Q309.67-35.14 313.56-37.22Q317.45-39.31 322.42-39.31L322.42-39.31Q327.02-39.31 330.66-37.48Q334.3-35.64 336.38-31.86Q338.47-28.08 338.47-22.18L338.47-22.18L338.47 0L327.24 0L327.24-20.45Q327.24-25.13 325.19-27.36Q323.14-29.59 319.39-29.59L319.39-29.59Q316.73-29.59 314.6-28.48Q312.48-27.36 311.29-25.06Q310.1-22.75 310.1-19.15L310.1-19.15L310.1 0ZM370.73 0L359.14 0L342.86-38.74L354.46-38.74L367.99-5.4L362.23-5.4L376.27-38.74L387.07-38.74L370.73 0ZM410.9 0.58L410.9 0.58Q404.28 0.58 399.28-2.02Q394.27-4.61 391.54-9.11Q388.8-13.61 388.8-19.37L388.8-19.37Q388.8-25.2 391.5-29.7Q394.2-34.2 398.88-36.76Q403.56-39.31 409.46-39.31L409.46-39.31Q415.15-39.31 419.72-36.9Q424.3-34.49 426.96-29.99Q429.62-25.49 429.62-19.22L429.62-19.22Q429.62-18.58 429.55-17.75Q429.48-16.92 429.41-16.2L429.41-16.2L397.94-16.2L397.94-22.75L423.5-22.75L419.18-20.81Q419.18-23.83 417.96-26.06Q416.74-28.3 414.58-29.56Q412.42-30.82 409.54-30.82L409.54-30.82Q406.66-30.82 404.46-29.56Q402.26-28.3 401.04-26.03Q399.82-23.76 399.82-20.66L399.82-20.66L399.82-18.94Q399.82-15.77 401.22-13.36Q402.62-10.94 405.18-9.68Q407.74-8.42 411.19-8.42L411.19-8.42Q414.29-8.42 416.63-9.36Q418.97-10.3 420.91-12.17L420.91-12.17L426.89-5.69Q424.22-2.66 420.19-1.04Q416.16 0.58 410.9 0.58ZM448.34 0L437.11 0L437.11-38.74L447.84-38.74L447.84-27.79L446.33-30.96Q448.06-35.06 451.87-37.19Q455.69-39.31 461.16-39.31L461.16-39.31L461.16-28.94Q460.44-29.02 459.86-29.05Q459.29-29.09 458.64-29.09L458.64-29.09Q454.03-29.09 451.19-26.46Q448.34-23.83 448.34-18.29L448.34-18.29L448.34 0ZM483.98 0.58L483.98 0.58Q477.14 0.58 473.33-2.92Q469.51-6.41 469.51-13.32L469.51-13.32L469.51-47.3L480.74-47.3L480.74-13.46Q480.74-11.02 482.04-9.68Q483.34-8.35 485.57-8.35L485.57-8.35Q488.23-8.35 490.1-9.79L490.1-9.79L493.13-1.87Q491.4-0.65 488.99-0.04Q486.58 0.58 483.98 0.58ZM490.39-30.1L463.54-30.1L463.54-38.74L490.39-38.74L490.39-30.1Z" fill="#ffffff"></path>
    </svg>
</svg>